<?xml version="1.0" standalone="no"?>
<!DOCTYPE svg PUBLIC "-//W3C//DTD SVG 20010904//EN"
 "http://www.w3.org/TR/2001/REC-SVG-20010904/DTD/svg10.dtd">
<svg version="1.0" xmlns="http://www.w3.org/2000/svg"
 width="1080.000000pt" height="1080.000000pt" viewBox="0 0 1080.000000 1080.000000"
 preserveAspectRatio="xMidYMid meet">
<metadata>
Created by potrace 1.14, written by Peter Selinger 2001-2017
</metadata>
<g transform="translate(0.000000,1080.000000) scale(0.100000,-0.100000)"
fill="#000000" stroke="none">
<path d="M5468 8830 c-188 -34 -345 -123 -569 -322 -52 -47 -133 -128 -180
-179 -160 -179 -203 -219 -234 -219 -16 0 -52 17 -89 43 -148 105 -308 177
-393 177 -51 -1 -115 -31 -141 -68 -12 -16 -22 -33 -22 -37 0 -4 -29 -57 -64
-119 -102 -179 -121 -233 -121 -351 0 -118 19 -187 76 -276 56 -86 74 -93 269
-99 161 -5 165 -5 168 -27 2 -13 -9 -116 -24 -230 -47 -356 -40 -481 46 -808
48 -183 65 -376 37 -419 -29 -44 -50 -143 -42 -205 11 -97 43 -216 91 -343
126 -332 195 -440 308 -483 56 -21 120 -14 169 19 l34 23 33 -81 c18 -44 52
-119 76 -165 l44 -85 0 -165 c0 -244 -34 -431 -98 -540 -38 -66 -124 -154
-196 -200 -122 -80 -637 -294 -986 -411 -246 -83 -392 -125 -777 -224 -622
-161 -850 -266 -1029 -474 -74 -87 -263 -363 -376 -552 -120 -199 -237 -447
-223 -470 15 -24 44 -9 56 27 40 125 171 364 356 646 137 210 204 296 301 389
72 69 99 86 234 152 189 93 304 131 723 241 486 127 648 176 962 291 199 73
570 227 670 278 l52 26 62 -106 c218 -365 753 -759 1321 -972 133 -50 396
-126 513 -148 117 -21 235 -15 327 19 158 57 282 207 295 357 l5 57 117 -117
c217 -218 385 -315 794 -456 104 -36 222 -81 261 -101 258 -129 421 -350 506
-687 35 -137 55 -295 75 -586 22 -310 24 -324 54 -328 24 -4 24 -3 18 65 -4
37 -14 165 -22 283 -45 630 -140 914 -385 1143 -131 122 -199 157 -560 283
-177 61 -376 157 -492 235 -54 38 -141 112 -210 181 -99 99 -122 129 -157 200
-23 46 -50 119 -62 163 -50 196 -30 579 43 808 18 55 29 72 59 93 192 133 473
652 588 1085 69 258 92 428 92 674 0 195 -16 341 -57 513 l-24 103 70 148 c39
82 70 158 70 170 0 44 -33 61 -119 61 l-79 0 -12 38 c-7 20 -25 57 -40 82 -22
36 -29 62 -33 125 -16 220 -152 807 -234 1015 -28 70 -119 219 -191 314 -54
71 -209 207 -294 259 -34 20 -110 53 -168 71 -180 58 -569 154 -715 177 -152
23 -474 34 -557 19z m502 -64 c247 -34 737 -159 865 -221 84 -41 262 -189 326
-271 69 -89 155 -231 185 -304 75 -185 194 -687 229 -970 l7 -55 -30 30 c-24
25 -36 56 -67 175 -99 380 -222 628 -395 800 -87 87 -176 138 -290 166 -106
27 -322 24 -485 -5 -207 -38 -234 -41 -480 -41 -156 -1 -266 -5 -315 -14 -362
-66 -613 -364 -745 -885 -49 -197 -85 -461 -88 -661 -2 -109 -1 -115 18 -115
18 0 21 9 27 100 33 465 92 752 209 1004 93 201 241 367 392 441 139 67 165
72 517 80 256 6 334 11 415 28 231 47 395 52 541 14 221 -56 417 -292 550
-660 32 -86 104 -334 104 -355 0 -12 -43 14 -59 36 -32 46 -227 107 -338 107
-76 0 -182 -27 -258 -64 -71 -35 -165 -116 -165 -142 0 -24 18 -15 60 30 44
47 131 98 212 123 82 26 235 23 327 -5 83 -26 90 -35 16 -21 -64 13 -179 3
-258 -21 -142 -44 -284 -160 -347 -283 -29 -56 -38 -67 -55 -62 -110 31 -197
26 -311 -16 -31 -12 -56 -19 -57 -17 -1 1 -13 25 -26 52 -30 58 -95 132 -151
171 -28 19 -38 31 -30 39 17 17 12 25 -42 61 -93 61 -157 78 -293 78 -104 1
-131 -3 -205 -27 -47 -16 -116 -44 -155 -64 -74 -39 -265 -177 -265 -192 0
-24 23 -14 86 36 173 139 380 224 541 224 110 -1 255 -50 300 -104 18 -20 18
-20 -9 -3 -44 27 -169 65 -239 73 -180 18 -422 -89 -537 -239 -48 -62 -92
-153 -99 -206 l-5 -38 -78 -12 c-43 -7 -89 -19 -103 -26 -13 -7 -102 -77 -198
-157 -268 -222 -423 -348 -425 -345 -1 1 -9 52 -18 112 -9 61 -27 150 -41 199
-13 48 -36 152 -51 230 -31 167 -30 225 15 575 16 124 27 231 24 238 -12 30
-51 38 -215 43 l-167 5 -31 30 c-61 57 -110 186 -110 286 0 70 28 162 78 254
128 235 136 248 171 262 78 33 215 -17 405 -147 95 -65 103 -69 138 -61 58 13
98 44 168 128 85 102 244 260 350 349 163 137 299 211 440 239 107 22 323 18
520 -9z m1293 -1781 c131 -28 262 -126 311 -234 39 -87 53 -207 37 -323 -6
-50 -14 -95 -17 -100 -4 -5 -16 0 -28 11 -25 24 -91 53 -100 44 -13 -13 -5
-22 38 -43 84 -40 84 -61 -4 -151 -41 -42 -81 -70 -136 -96 -78 -37 -81 -38
-199 -38 -117 0 -122 1 -185 34 -136 71 -236 208 -261 358 -16 100 0 236 38
304 60 111 189 206 316 234 81 18 108 18 190 0z m-1424 -72 c62 -19 181 -101
223 -153 86 -109 103 -380 32 -528 -35 -73 -121 -162 -192 -200 -137 -73 -269
-80 -396 -19 -73 34 -201 141 -190 158 3 5 -2 12 -11 15 -8 4 -22 18 -29 32
-12 23 -12 28 2 38 19 14 6 37 -17 29 -13 -4 -20 3 -28 30 -11 35 -10 36 23
50 49 20 44 39 -8 30 l-41 -7 6 108 c9 139 37 202 131 292 138 133 319 179
495 125z m727 -288 c30 -12 30 -13 26 -72 -6 -84 21 -215 62 -298 64 -129 191
-245 325 -296 210 -79 464 -14 622 159 49 54 109 156 109 187 0 8 4 15 8 15
12 0 51 -173 68 -300 18 -139 18 -429 -1 -573 -43 -331 -133 -615 -296 -937
-224 -445 -374 -577 -707 -621 -144 -19 -318 4 -617 81 -509 131 -919 321
-1076 498 -89 101 -174 251 -239 425 -21 54 -39 87 -48 87 -8 0 -32 -15 -53
-34 -99 -90 -214 -38 -306 139 -85 166 -185 447 -202 568 -24 169 29 264 143
259 56 -2 135 -60 213 -156 31 -38 63 -45 63 -12 0 41 -142 177 -218 209 l-33
14 103 84 c56 46 183 150 280 231 161 133 182 147 233 158 31 6 58 10 59 8 2
-1 7 -33 12 -71 10 -64 9 -68 -14 -90 -47 -42 -122 -138 -117 -148 11 -17 20
-9 78 62 32 38 63 69 69 67 7 -3 16 -17 21 -32 8 -25 5 -33 -40 -80 -56 -57
-83 -94 -83 -113 0 -20 28 -15 35 6 7 24 97 121 111 121 5 0 17 -12 26 -27 16
-28 15 -29 -27 -71 -55 -55 -99 -139 -140 -264 -29 -89 -31 -119 -7 -104 5 3
19 40 32 83 30 104 82 205 132 259 l41 44 71 -67 c244 -232 570 -229 807 7
121 120 158 217 165 425 l4 130 49 23 c91 42 181 48 257 17z m1188 -30 c-4 -8
-7 -15 -9 -15 -2 0 -5 7 -9 15 -3 9 0 15 9 15 9 0 12 -6 9 -15z m-2539 -2300
c299 -199 1018 -435 1405 -462 126 -8 322 24 433 72 16 6 16 4 6 -21 -43 -113
-75 -402 -66 -609 4 -109 12 -156 47 -290 63 -242 50 -324 -70 -449 -71 -74
-146 -113 -252 -129 -99 -15 -216 2 -430 62 -525 149 -969 399 -1325 745 -147
142 -200 208 -264 323 l-42 76 29 20 c69 48 181 173 212 237 61 126 91 292 92
499 l0 133 71 -76 c39 -42 108 -101 154 -131z"/>
<path d="M4324 7275 c-4 -9 -1 -22 5 -28 12 -12 380 -68 394 -60 4 2 7 13 7
23 0 24 -1 24 -200 50 -85 12 -165 24 -177 27 -16 3 -25 0 -29 -12z"/>
<path d="M7062 6740 c-41 -18 -15 -27 65 -22 94 5 160 -16 241 -78 52 -40 72
-48 72 -31 0 16 -83 81 -139 108 -42 21 -72 27 -135 30 -45 2 -91 -2 -104 -7z"/>
<path d="M7050 6676 c-96 -28 -230 -117 -230 -153 0 -17 -5 -17 130 13 82 19
352 26 428 11 54 -11 55 3 5 51 -81 76 -224 110 -333 78z m225 -44 c87 -45 85
-47 -41 -44 -102 3 -207 -5 -308 -25 -67 -14 34 52 129 84 57 19 170 11 220
-15z"/>
<path d="M7440 6515 c0 -8 12 -17 28 -21 15 -3 48 -12 74 -20 59 -18 68 -18
68 1 0 8 -17 19 -42 25 -24 6 -59 15 -78 21 -46 12 -50 12 -50 -6z"/>
<path d="M7436 6472 c-8 -13 11 -27 56 -41 21 -7 40 -17 43 -22 9 -14 47 -11
43 4 -7 24 -132 75 -142 59z"/>
<path d="M5535 6640 c-90 -29 -238 -151 -220 -180 4 -6 33 14 70 49 35 32 90
72 122 87 55 28 64 29 191 28 72 0 132 3 132 7 0 32 -204 38 -295 9z"/>
<path d="M5561 6575 c-68 -19 -135 -55 -197 -107 -46 -37 -67 -68 -47 -68 5 0
58 11 118 25 128 30 356 44 445 27 30 -6 59 -7 63 -3 15 15 -36 61 -107 96
-88 44 -187 54 -275 30z m210 -35 c35 -11 74 -28 86 -38 22 -16 19 -17 -99
-14 -109 3 -295 -16 -347 -36 -34 -12 8 25 60 53 105 57 197 68 300 35z"/>
<path d="M6775 5743 c-26 -7 -112 -70 -118 -86 -3 -8 -1 -20 4 -28 7 -12 15
-10 48 9 24 13 57 22 81 22 50 0 110 24 110 43 0 8 -7 20 -15 27 -16 13 -80
21 -110 13z"/>
<path d="M6148 5703 c-35 -4 -55 -24 -42 -44 3 -5 50 -9 105 -9 83 0 101 3
106 16 14 37 -44 50 -169 37z"/>
<path d="M4595 5508 c-2 -7 -6 -40 -7 -73 -3 -58 -4 -60 -31 -63 -19 -2 -32
-12 -40 -30 -12 -26 -12 -26 -17 18 -4 33 -10 46 -23 48 -30 6 -46 -15 -36
-46 5 -15 14 -46 19 -69 6 -22 19 -52 29 -64 19 -24 19 -24 40 -5 12 11 24 36
27 56 5 30 12 39 39 49 38 13 43 24 46 96 4 83 1 95 -21 95 -11 0 -23 -6 -25
-12z"/>
<path d="M6788 5409 c-32 -4 -92 -22 -135 -39 -75 -30 -77 -31 -117 -14 -98
39 -262 6 -461 -93 -100 -50 -354 -206 -360 -220 -8 -23 10 -39 117 -102 124
-74 272 -135 418 -174 108 -29 126 -30 300 -31 160 0 196 3 265 22 190 53 355
160 475 308 63 80 124 178 118 195 -4 12 -113 56 -243 98 -144 47 -280 65
-377 50z m273 -73 c110 -28 266 -84 275 -98 9 -15 -62 -116 -140 -197 -180
-187 -399 -270 -686 -258 -237 10 -461 82 -683 220 l-48 30 108 64 c320 193
505 253 639 207 47 -16 59 -16 87 -5 131 53 163 61 258 61 70 0 123 -7 190
-24z"/>
<path d="M5173 5164 c-10 -26 14 -132 44 -193 37 -77 122 -158 220 -209 45
-23 88 -42 97 -42 35 0 12 21 -61 57 -107 52 -211 154 -242 238 -12 33 -25 81
-28 108 -6 51 -19 69 -30 41z"/>
<path d="M6782 3150 c-41 -46 -60 -60 -81 -60 -36 0 -93 24 -150 62 -32 22
-47 26 -55 18 -13 -14 6 -30 84 -70 82 -41 121 -50 158 -35 48 21 139 146 105
145 -5 0 -32 -27 -61 -60z"/>
</g>
</svg>
